<?xml version="1.0" standalone="no"?>
<!DOCTYPE svg PUBLIC "-//W3C//DTD SVG 20010904//EN"
 "http://www.w3.org/TR/2001/REC-SVG-20010904/DTD/svg10.dtd">
<svg version="1.0" xmlns="http://www.w3.org/2000/svg"
 width="512.000000pt" height="512.000000pt" viewBox="0 0 512.000000 512.000000"
 preserveAspectRatio="xMidYMid meet">

<g transform="translate(0.000000,512.000000) scale(0.100000,-0.100000)"
fill="#000000" stroke="none">
<path d="M4105 4950 c-61 -12 -142 -47 -201 -86 -65 -44 -265 -249 -639 -655
-809 -881 -1469 -1533 -2385 -2356 l-236 -211 -78 -204 c-119 -310 -359 -1036
-399 -1207 -8 -32 32 -72 64 -64 209 48 1180 390 1323 466 85 45 192 151 495
487 733 812 1251 1325 2231 2206 596 536 673 634 674 859 1 109 -7 137 -59
220 -71 112 -420 457 -514 508 -72 39 -187 55 -276 37z m137 -330 c81 -30 262
-200 350 -328 40 -57 48 -132 24 -214 -25 -87 -138 -202 -741 -753 -198 -181
-454 -417 -570 -524 -288 -267 -896 -878 -1465 -1474 l-475 -497 -164 -60
c-90 -34 -171 -59 -180 -58 -9 2 -27 23 -40 48 -32 58 -163 189 -221 221 -62
33 -63 58 -7 198 81 200 79 198 562 659 385 368 1135 1111 1434 1422 119 124
378 401 576 615 591 640 650 697 768 741 77 28 84 29 149 4z"/>
</g>
</svg>
